<svg xmlns="http://www.w3.org/2000/svg" width="1200" height="760" viewBox="0 0 1200 760" role="img" aria-labelledby="title desc">
	<title id="title">Gravatar display in a Directus list view</title>
	<desc id="desc">A Directus collection list showing email rows rendered with circular Gravatar avatars and optional email text.</desc>
	<defs>
		<filter id="shadow" x="-20%" y="-20%" width="140%" height="140%">
			<feDropShadow dx="0" dy="16" stdDeviation="24" flood-color="#182235" flood-opacity="0.16"/>
		</filter>
		<linearGradient id="avatar-a" x1="0" x2="1" y1="0" y2="1">
			<stop offset="0%" stop-color="#00A86B"/>
			<stop offset="100%" stop-color="#4F46E5"/>
		</linearGradient>
		<linearGradient id="avatar-b" x1="0" x2="1" y1="0" y2="1">
			<stop offset="0%" stop-color="#E879F9"/>
			<stop offset="100%" stop-color="#F59E0B"/>
		</linearGradient>
		<linearGradient id="avatar-c" x1="0" x2="1" y1="0" y2="1">
			<stop offset="0%" stop-color="#14B8A6"/>
			<stop offset="100%" stop-color="#0EA5E9"/>
		</linearGradient>
	</defs>
	<rect width="1200" height="760" fill="#F5F7FA"/>
	<rect x="52" y="48" width="1096" height="664" rx="10" fill="#FFFFFF" filter="url(#shadow)"/>
	<rect x="52" y="48" width="88" height="664" rx="10" fill="#18212F"/>
	<rect x="52" y="48" width="88" height="664" rx="10" fill="#18212F"/>
	<circle cx="96" cy="92" r="20" fill="#6644FF"/>
	<rect x="78" y="148" width="36" height="36" rx="8" fill="#FFFFFF" opacity="0.14"/>
	<rect x="78" y="204" width="36" height="36" rx="8" fill="#FFFFFF" opacity="0.08"/>
	<rect x="78" y="260" width="36" height="36" rx="8" fill="#FFFFFF" opacity="0.08"/>
	<rect x="78" y="316" width="36" height="36" rx="8" fill="#FFFFFF" opacity="0.08"/>
	<rect x="140" y="48" width="1008" height="82" fill="#FFFFFF"/>
	<text x="184" y="96" fill="#172033" font-family="Inter, Arial, sans-serif" font-size="24" font-weight="700">Contacts</text>
	<rect x="948" y="72" width="136" height="36" rx="18" fill="#6644FF"/>
	<text x="982" y="96" fill="#FFFFFF" font-family="Inter, Arial, sans-serif" font-size="14" font-weight="700">Create Item</text>
	<line x1="140" x2="1148" y1="130" y2="130" stroke="#E5EAF0"/>
	<rect x="184" y="166" width="892" height="482" rx="8" fill="#FFFFFF" stroke="#DDE3EA"/>
	<rect x="184" y="166" width="892" height="54" rx="8" fill="#F8FAFC"/>
	<text x="224" y="199" fill="#64748B" font-family="Inter, Arial, sans-serif" font-size="13" font-weight="700">NAME</text>
	<text x="452" y="199" fill="#64748B" font-family="Inter, Arial, sans-serif" font-size="13" font-weight="700">EMAIL</text>
	<text x="790" y="199" fill="#64748B" font-family="Inter, Arial, sans-serif" font-size="13" font-weight="700">ROLE</text>
	<line x1="184" x2="1076" y1="220" y2="220" stroke="#E5EAF0"/>
	<g font-family="Inter, Arial, sans-serif">
		<text x="224" y="272" fill="#172033" font-size="15" font-weight="650">Avery Stone</text>
		<circle cx="468" cy="267" r="18" fill="url(#avatar-a)"/>
		<text x="468" y="273" fill="#FFFFFF" font-size="13" font-weight="700" text-anchor="middle">AS</text>
		<text x="498" y="272" fill="#172033" font-size="15">avery@example.com</text>
		<rect x="790" y="248" width="74" height="30" rx="15" fill="#E9F7EF"/>
		<text x="827" y="268" fill="#087443" font-size="13" font-weight="700" text-anchor="middle">Editor</text>
		<line x1="184" x2="1076" y1="314" y2="314" stroke="#EDF1F5"/>
		<text x="224" y="366" fill="#172033" font-size="15" font-weight="650">Mira Chen</text>
		<circle cx="468" cy="361" r="18" fill="url(#avatar-b)"/>
		<text x="468" y="367" fill="#FFFFFF" font-size="13" font-weight="700" text-anchor="middle">MC</text>
		<text x="498" y="366" fill="#172033" font-size="15">mira@example.com</text>
		<rect x="790" y="342" width="86" height="30" rx="15" fill="#F0ECFF"/>
		<text x="833" y="362" fill="#5638C2" font-size="13" font-weight="700" text-anchor="middle">Manager</text>
		<line x1="184" x2="1076" y1="408" y2="408" stroke="#EDF1F5"/>
		<text x="224" y="460" fill="#172033" font-size="15" font-weight="650">Jonas Weber</text>
		<circle cx="468" cy="455" r="18" fill="url(#avatar-c)"/>
		<text x="468" y="461" fill="#FFFFFF" font-size="13" font-weight="700" text-anchor="middle">JW</text>
		<text x="498" y="460" fill="#172033" font-size="15">jonas@example.com</text>
		<rect x="790" y="436" width="72" height="30" rx="15" fill="#EEF6FF"/>
		<text x="826" y="456" fill="#0969A8" font-size="13" font-weight="700" text-anchor="middle">Admin</text>
		<line x1="184" x2="1076" y1="502" y2="502" stroke="#EDF1F5"/>
		<text x="224" y="554" fill="#172033" font-size="15" font-weight="650">Sam Rivera</text>
		<circle cx="468" cy="549" r="18" fill="#EEF1F5"/>
		<path d="M468 535a7 7 0 1 1 0 14a7 7 0 0 1 0-14Zm-13 29c2-8 8-12 13-12s11 4 13 12" fill="none" stroke="#8A97A8" stroke-width="3" stroke-linecap="round"/>
		<text x="498" y="554" fill="#172033" font-size="15">sam@example.com</text>
		<rect x="790" y="530" width="74" height="30" rx="15" fill="#FFF5E5"/>
		<text x="827" y="550" fill="#9A5B00" font-size="13" font-weight="700" text-anchor="middle">Viewer</text>
	</g>
	<rect x="184" y="670" width="338" height="16" rx="8" fill="#E8EDF4"/>
	<rect x="184" y="670" width="156" height="16" rx="8" fill="#CED8E5"/>
</svg>
